REM MD5 a82c4e837163d6229058d1d7beb54c98
FILE "Voice Paradice Excella (Japan) (Disc 2).bin" BINARY
  TRACK 01 MODE2/2352
    INDEX 01 00:00:00
  TRACK 02 AUDIO
    INDEX 00 17:14:30
    INDEX 01 17:16:30
  TRACK 03 AUDIO
    INDEX 00 19:32:12
    INDEX 01 19:34:12
  TRACK 04 AUDIO
    INDEX 00 22:49:23
    INDEX 01 22:51:23
REM LEADOUT 24:21:23
